<svg width="44" height="44" viewBox="0 0 44 44" fill="none" xmlns="http://www.w3.org/2000/svg">
<path d="M31.129 16.0402C31.154 14.8621 30.9437 13.691 30.5101 12.5953C30.0766 11.4996 29.4288 10.5016 28.6045 9.65957C27.7802 8.81758 26.7961 8.14863 25.7099 7.69194C24.6237 7.23524 23.4573 7 22.279 7C21.1007 7 19.9343 7.23524 18.8481 7.69194C17.7619 8.14863 16.7778 8.81758 15.9535 9.65957C15.1292 10.5016 14.4814 11.4996 14.0479 12.5953C13.6143 13.691 13.404 14.8621 13.429 16.0402C13.426 26.3662 9 29.3172 9 29.3172H35.555C35.555 29.3172 31.129 26.3662 31.129 16.0402Z" fill="#333333" fill-opacity="0.96"/>
<path d="M31.129 16.0402C31.154 14.8621 30.9437 13.691 30.5101 12.5953C30.0766 11.4996 29.4288 10.5016 28.6045 9.65957C27.7802 8.81758 26.7961 8.14863 25.7099 7.69194C24.6237 7.23524 23.4573 7 22.279 7C21.1007 7 19.9343 7.23524 18.8481 7.69194C17.7619 8.14863 16.7778 8.81758 15.9535 9.65957C15.1292 10.5016 14.4814 11.4996 14.0479 12.5953C13.6143 13.691 13.404 14.8621 13.429 16.0402C13.426 26.3662 9 29.3172 9 29.3172H35.555C35.555 29.3172 31.129 26.3662 31.129 16.0402" stroke="#333333" stroke-width="2" stroke-linecap="round" stroke-linejoin="round"/>
<path d="M24.829 35.2178C24.5693 35.6637 24.1971 36.0338 23.7496 36.291C23.3022 36.5482 22.7951 36.6835 22.279 36.6835C21.7629 36.6835 21.2558 36.5482 20.8084 36.291C20.3609 36.0338 19.9888 35.6637 19.729 35.2178" fill="#333333" fill-opacity="0.96"/>
<path d="M24.829 35.2178C24.5693 35.6637 24.1971 36.0338 23.7496 36.291C23.3022 36.5482 22.7951 36.6835 22.279 36.6835C21.7629 36.6835 21.2558 36.5482 20.8084 36.291C20.3609 36.0338 19.9888 35.6637 19.729 35.2178" stroke="#333333" stroke-width="2" stroke-linecap="round" stroke-linejoin="round"/>
<circle cx="32.5" cy="11.5" r="11" fill="#F9F9F9" stroke="#E4E7EA"/>
<path d="M24.88 15H28.9V14.24H27.42V7.67H26.72C26.33 7.91 25.86 8.08 25.2 8.19V8.78H26.51V14.24H24.88V15ZM32.3269 15.14C33.7069 15.14 34.5969 13.87 34.5969 11.31C34.5969 8.77 33.7069 7.54 32.3269 7.54C30.9269 7.54 30.0369 8.77 30.0369 11.31C30.0369 13.87 30.9269 15.14 32.3269 15.14ZM32.3269 14.4C31.4869 14.4 30.9169 13.47 30.9169 11.31C30.9169 9.18 31.4869 8.27 32.3269 8.27C33.1569 8.27 33.7169 9.18 33.7169 11.31C33.7169 13.47 33.1569 14.4 32.3269 14.4ZM37.8738 15.14C39.2538 15.14 40.1437 13.87 40.1437 11.31C40.1437 8.77 39.2538 7.54 37.8738 7.54C36.4738 7.54 35.5838 8.77 35.5838 11.31C35.5838 13.87 36.4738 15.14 37.8738 15.14ZM37.8738 14.4C37.0338 14.4 36.4638 13.47 36.4638 11.31C36.4638 9.18 37.0338 8.27 37.8738 8.27C38.7038 8.27 39.2638 9.18 39.2638 11.31C39.2638 13.47 38.7038 14.4 37.8738 14.4Z" fill="#808386"/>
</svg>
