<svg xmlns="http://www.w3.org/2000/svg" width="24" height="24" viewBox="0 0 24 24">
  <g id="그룹_13627" data-name="그룹 13627" transform="translate(-13334 -1318)">
    <rect id="사각형_962" data-name="사각형 962" width="24" height="24" transform="translate(13334 1318)" fill="none"/>
    <path id="Apple_logo_black" d="M16.86,7.5a4.994,4.994,0,0,0-2.315,4.191,4.833,4.833,0,0,0,2.871,4.449,11.694,11.694,0,0,1-1.47,3.122c-.916,1.355-1.872,2.708-3.327,2.708S10.791,21.1,9.112,21.1c-1.637,0-2.219.9-3.549.9S3.3,20.746,2.236,19.206A13.742,13.742,0,0,1,0,11.921C0,7.644,2.7,5.375,5.366,5.375c1.414,0,2.593.955,3.481.955.845,0,2.163-1.012,3.772-1.012A4.987,4.987,0,0,1,16.86,7.5ZM11.854,3.507A4.994,4.994,0,0,0,12.99.442,2.171,2.171,0,0,0,12.95,0,4.742,4.742,0,0,0,9.8,1.668,4.855,4.855,0,0,0,8.624,4.649a2.075,2.075,0,0,0,.041.4,1.629,1.629,0,0,0,.291.029,4.111,4.111,0,0,0,2.9-1.569Z" transform="translate(13337 1319)" fill="#fff"/>
  </g>
</svg>
