<svg width="164" height="120" viewBox="0 0 164 120" fill="none" xmlns="http://www.w3.org/2000/svg">
<rect width="164" height="120" fill="#E4E7EA"/>
<path d="M104 74C104 75.0609 103.579 76.0783 102.828 76.8284C102.078 77.5786 101.061 78 100 78H64C62.9391 78 61.9217 77.5786 61.1716 76.8284C60.4214 76.0783 60 75.0609 60 74V52C60 50.9391 60.4214 49.9217 61.1716 49.1716C61.9217 48.4214 62.9391 48 64 48H72L76 42H88L92 48H100C101.061 48 102.078 48.4214 102.828 49.1716C103.579 49.9217 104 50.9391 104 52V74Z" stroke="#FDFEFF" stroke-width="3" stroke-linecap="round" stroke-linejoin="round"/>
<path d="M82 70C86.4183 70 90 66.4183 90 62C90 57.5817 86.4183 54 82 54C77.5817 54 74 57.5817 74 62C74 66.4183 77.5817 70 82 70Z" stroke="#FDFEFF" stroke-width="3" stroke-linecap="round" stroke-linejoin="round"/>
</svg>
