<svg width="20" height="20" viewBox="0 0 20 20" fill="none" xmlns="http://www.w3.org/2000/svg">
<g clip-path="url(#clip0_1270_3366)">
<path d="M16.2079 20.0002H3.11351C2.31528 20.0002 1.6665 19.3514 1.6665 18.5532V1.79369C1.6665 0.995457 2.31528 0.34668 3.11351 0.34668H6.67499C7.05033 0.34668 7.35434 0.650688 7.35434 1.02603C7.35434 1.40137 7.05033 1.70538 6.67499 1.70538H3.11351C3.06596 1.70538 3.0252 1.74614 3.0252 1.79369V18.5532C3.0252 18.6008 3.06766 18.6415 3.11351 18.6415H16.2079C16.2555 18.6415 16.2963 18.5991 16.2963 18.5532V1.79369C16.2963 1.74614 16.2538 1.70538 16.2079 1.70538H12.6465C12.2711 1.70538 11.9671 1.40137 11.9671 1.02603C11.9671 0.650688 12.2711 0.34668 12.6465 0.34668H16.2079C17.0062 0.34668 17.655 0.995457 17.655 1.79369V18.5532C17.655 19.3514 17.0062 20.0002 16.2079 20.0002Z" fill="#A8ABAE"/>
<path d="M16.9756 18.0219H2.34589C2.01811 18.0219 1.75146 17.7552 1.75146 17.4274C1.75146 17.0997 2.01811 16.833 2.34589 16.833H16.9756C17.3034 16.833 17.5701 17.0997 17.5701 17.4274C17.5701 17.7552 17.3034 18.0219 16.9756 18.0219Z" fill="#A8ABAE"/>
<path d="M12.3274 3.67188H6.9945C6.44423 3.67188 5.99756 3.22351 5.99756 2.67493V0.996943C5.99756 0.446671 6.44593 0 6.9945 0H12.3257C12.876 0 13.3226 0.44837 13.3226 0.996943V2.67323C13.3226 3.22351 12.8743 3.67018 12.3257 3.67018L12.3274 3.67188ZM7.35625 2.31318H11.9656V1.3587H7.35625V2.31318Z" fill="#A8ABAE"/>
<path d="M13.4649 14.6718C13.1371 14.6718 12.8704 14.4052 12.8704 14.0774C12.8704 12.464 11.9024 11.197 10.4621 10.9252C10.2227 10.8794 10.0359 10.6943 9.99 10.4548C9.94244 10.217 10.046 9.97244 10.2515 9.84167C11.0107 9.35254 11.3334 8.85831 11.3334 8.19085C11.3334 7.26864 10.5844 6.51966 9.66221 6.51966C8.74 6.51966 7.99102 7.27034 7.99102 8.19085C7.99102 8.93304 8.3273 9.46293 9.01853 9.8111C9.24611 9.92489 9.37519 10.1729 9.34122 10.4242C9.30556 10.6773 9.11364 10.8777 8.86398 10.9252C7.42207 11.1987 6.45399 12.4657 6.45399 14.0774C6.45399 14.4052 6.18735 14.6718 5.85957 14.6718C5.53178 14.6718 5.26514 14.4052 5.26514 14.0774C5.26514 12.3162 6.1347 10.8522 7.51548 10.1406C7.05012 9.61748 6.80386 8.95172 6.80386 8.18916C6.80386 6.61137 8.08783 5.3291 9.66391 5.3291C11.24 5.3291 12.524 6.61307 12.524 8.18916C12.524 9.04853 12.1911 9.66674 11.775 10.1219C13.1778 10.825 14.0627 12.2992 14.0627 14.0774C14.0627 14.4052 13.796 14.6718 13.4683 14.6718H13.4649Z" fill="#FF9800"/>
</g>
<defs>
<clipPath id="clip0_1270_3366">
<rect width="15.9884" height="20" fill="white" transform="translate(1.6665)"/>
</clipPath>
</defs>
</svg>
