<svg width="20" height="20" viewBox="0 0 20 20" fill="none" xmlns="http://www.w3.org/2000/svg">
<g clip-path="url(#clip0_1270_3313)">
<path d="M9.99939 17.2535C6.78003 17.2535 3.19287 16.2479 3.19287 14.8047V9.77845C3.19287 9.58966 3.28797 9.41344 3.446 9.30995C3.60403 9.20647 3.80402 9.18968 3.97603 9.2666L9.86793 11.851C9.87912 11.8552 9.92527 11.8678 9.99799 11.8678C10.0707 11.8678 10.1169 11.8552 10.1281 11.851L16.0199 9.2666C16.1934 9.19108 16.3919 9.20786 16.55 9.30995C16.708 9.41344 16.8031 9.58966 16.8031 9.77845V14.8047C16.8031 16.2479 13.2159 17.2535 9.99659 17.2535H9.99939ZM4.31167 14.7585C4.57459 15.1753 6.79821 16.1347 9.99939 16.1347C13.2006 16.1347 15.4242 15.1767 15.6871 14.7585V10.6329L10.5798 12.8733C10.37 12.9656 10.149 12.9852 9.99939 12.9852C9.84975 12.9852 9.63018 12.9656 9.41901 12.8733L4.31307 10.6343V14.7599L4.31167 14.7585Z" fill="#A8ABAE"/>
<path d="M9.99933 12.9869C9.85109 12.9869 9.63013 12.9673 9.41895 12.875L0.482517 8.95499C0.183237 8.82353 0.00283007 8.576 3.30636e-05 8.2907C-0.00276394 8.00541 0.172049 7.75368 0.467133 7.61523L9.41196 3.45188C9.62454 3.35259 9.8483 3.33301 9.99933 3.33301C10.1504 3.33301 10.3741 3.35399 10.5867 3.45188L19.5315 7.61523C19.8266 7.75228 20.0014 8.00541 19.9986 8.2893C19.9958 8.5746 19.8154 8.82213 19.5162 8.95359L10.5783 12.8736C10.3685 12.9659 10.1476 12.9855 9.99794 12.9855L9.99933 12.9869ZM1.7104 8.27112L9.86927 11.8499C9.88046 11.8541 9.92661 11.8667 9.99933 11.8667C10.0721 11.8667 10.1182 11.8541 10.1294 11.8499L18.2897 8.27112L10.1154 4.46719C10.107 4.463 10.0651 4.45181 9.99933 4.45181C9.9336 4.45181 9.89165 4.463 9.88326 4.46719L1.7104 8.27112Z" fill="#A8ABAE"/>
<path d="M17.5639 12.2385C17.2548 12.2385 17.0045 11.9882 17.0045 11.6791V9.64708L9.89588 8.29892C9.59241 8.24158 9.39242 7.94929 9.45116 7.64442C9.5085 7.34094 9.80078 7.14096 10.1057 7.19969L17.6702 8.63456C17.9345 8.6849 18.1247 8.91566 18.1247 9.18417V11.6791C18.1247 11.9882 17.8743 12.2385 17.5653 12.2385H17.5639Z" fill="#FF9800"/>
<path d="M11.3196 7.7476C11.3196 8.15037 10.728 8.47762 9.99939 8.47762C9.27077 8.47762 8.6792 8.15037 8.6792 7.7476C8.6792 7.34483 9.27077 7.01758 9.99939 7.01758C10.728 7.01758 11.3196 7.34483 11.3196 7.7476Z" fill="#FF9800"/>
</g>
<defs>
<clipPath id="clip0_1270_3313">
<rect width="20" height="13.9207" fill="white" transform="translate(0 3.33301)"/>
</clipPath>
</defs>
</svg>
