<svg width="20" height="20" viewBox="0 0 20 20" fill="none" xmlns="http://www.w3.org/2000/svg">
<g clip-path="url(#clip0_1270_3341)">
<path d="M16.7688 7.33847V1.76367H14.0562V4.9569L16.7108 7.33847H16.7688Z" fill="#FF9800"/>
<path d="M15.5436 18.5762H4.455C4.11783 18.5762 3.84473 18.3031 3.84473 17.9659V10.8868H0.610311C0.360101 10.8868 0.135828 10.7342 0.0427617 10.5008C-0.0487785 10.2674 0.00919693 10.0034 0.192277 9.83102L9.58125 0.998924C9.8162 0.777702 10.1824 0.777702 10.4173 0.998924L19.8063 9.83255C19.9878 10.0034 20.0473 10.2689 19.9558 10.5023C19.8643 10.7342 19.6385 10.8883 19.3883 10.8883H16.1538V17.9674C16.1538 18.3046 15.8807 18.5777 15.5436 18.5777V18.5762ZM5.06527 17.3556H14.9333V10.2765C14.9333 9.93935 15.2064 9.66625 15.5436 9.66625H17.8489L9.99928 2.28049L2.14971 9.66625H4.455C4.79217 9.66625 5.06527 9.93935 5.06527 10.2765V17.3556Z" fill="#A8ABAE"/>
<path d="M12.6201 17.9659H11.3996V13.8359C11.3996 13.064 10.771 12.4354 9.99903 12.4354C9.22704 12.4354 8.59847 13.064 8.59847 13.8359V17.9659H7.37793V13.8359C7.37793 12.3911 8.55422 11.2148 9.99903 11.2148C11.4438 11.2148 12.6201 12.3911 12.6201 13.8359V17.9659Z" fill="#A8ABAE"/>
</g>
<defs>
<clipPath id="clip0_1270_3341">
<rect width="20" height="17.7435" fill="white" transform="translate(0 0.833008)"/>
</clipPath>
</defs>
</svg>
