<svg width="20" height="20" viewBox="0 0 20 20" fill="none" xmlns="http://www.w3.org/2000/svg">
<g clip-path="url(#clip0_1270_3377)">
<path d="M13.0173 20H6.9961C3.59753 20 0.833496 17.2342 0.833496 13.8357V10.8699C0.833496 8.0938 2.71469 5.67635 5.32354 4.93836L3.92514 0.915596C3.851 0.705233 3.88548 0.47073 4.01481 0.28968C4.14413 0.106906 4.35277 0 4.57692 0H15.4382C15.6624 0 15.871 0.10863 16.0003 0.28968C16.1296 0.472455 16.1624 0.705233 16.09 0.915596L14.6916 4.93836C17.3022 5.67635 19.1816 8.0938 19.1816 10.8699V13.8357C19.1816 17.2342 16.4176 20 13.019 20H13.0173ZM5.54597 1.37943L6.88402 5.22459C6.95127 5.41943 6.92885 5.63497 6.82194 5.81085C6.71504 5.98672 6.53399 6.1057 6.3288 6.13501C3.98204 6.46263 2.21293 8.49901 2.21293 10.8716V13.8374C2.21293 16.4756 4.35966 18.6223 6.9961 18.6223H13.0173C15.6555 18.6223 17.8005 16.4756 17.8005 13.8374V10.8716C17.8005 8.49901 16.0314 6.46263 13.6863 6.13501C13.4811 6.1057 13.3018 5.98845 13.1932 5.81085C13.0863 5.63497 13.0621 5.41943 13.1294 5.22459L14.4657 1.37943H5.54597Z" fill="#A8ABAE"/>
<path d="M14.5693 4.6709H5.44434V6.05033H14.5693V4.6709Z" fill="#A8ABAE"/>
<path d="M13.7983 11.6357H13.2051L13.7896 9.44068C13.7983 9.40619 13.7896 9.37171 13.7707 9.34412C13.7483 9.31825 13.7172 9.30273 13.6827 9.30273H12.9275C12.8775 9.30273 12.8344 9.33722 12.8206 9.3855L12.2464 11.6357H11.1222L10.5566 9.3855C10.5445 9.33722 10.5014 9.30273 10.4497 9.30273H9.56169C9.51168 9.30273 9.46685 9.33722 9.45651 9.3855L8.88232 11.6357H7.75636L7.19252 9.3855C7.18045 9.33722 7.13562 9.30273 7.08561 9.30273H6.34072C6.30623 9.30273 6.27347 9.31825 6.25451 9.34412C6.23381 9.37171 6.22692 9.40619 6.23381 9.44068L6.80973 11.6357H6.21485C6.15277 11.6357 6.10449 11.6874 6.10449 11.7478V12.4237C6.10449 12.484 6.15277 12.5323 6.21485 12.5323H7.04595L7.81326 15.4619C7.82533 15.5102 7.87016 15.5429 7.91844 15.5429H8.71851C8.77024 15.5429 8.81162 15.5084 8.82369 15.4602L9.57548 12.5323H10.4256L11.1756 15.4602C11.1894 15.5102 11.2325 15.5429 11.2825 15.5429H12.0809C12.1326 15.5429 12.1757 15.5102 12.1895 15.4619L12.9637 12.5323H13.7948C13.8552 12.5323 13.9052 12.484 13.9052 12.4237V11.7478C13.9052 11.6891 13.8552 11.6357 13.7948 11.6357H13.7983ZM12.024 12.5323L11.6843 13.8531L11.348 12.5323H12.024ZM10.1928 11.6357H9.80998L10.0031 10.8943L10.1928 11.6357ZM8.65471 12.5323L8.31848 13.8531L7.98052 12.5323H8.65471Z" fill="#FF9800"/>
</g>
<defs>
<clipPath id="clip0_1270_3377">
<rect width="18.3464" height="20" fill="white" transform="translate(0.833496)"/>
</clipPath>
</defs>
</svg>
