<svg width="20" height="20" viewBox="0 0 20 20" fill="none" xmlns="http://www.w3.org/2000/svg">
<g clip-path="url(#clip0_1270_3351)">
<path d="M9.99486 3.1759C9.61111 3.1759 9.30029 2.86508 9.30029 2.48133V0.694565C9.30029 0.310818 9.61111 0 9.99486 0C10.3786 0 10.6894 0.310818 10.6894 0.694565V2.48133C10.6894 2.86508 10.3786 3.1759 9.99486 3.1759Z" fill="#A8ABAE"/>
<path d="M9.99486 10.6889C9.61111 10.6889 9.30029 10.3781 9.30029 9.99432V4.68089C9.30029 4.29715 9.61111 3.98633 9.99486 3.98633C10.3786 3.98633 10.6894 4.29715 10.6894 4.68089V9.99432C10.6894 10.3781 10.3786 10.6889 9.99486 10.6889Z" fill="#FF9800"/>
<path d="M2.48133 10.6889H0.694565C0.310818 10.6889 0 10.3781 0 9.99437C0 9.61062 0.310818 9.2998 0.694565 9.2998H2.48133C2.86508 9.2998 3.1759 9.61062 3.1759 9.99437C3.1759 10.3781 2.86508 10.6889 2.48133 10.6889Z" fill="#A8ABAE"/>
<path d="M9.99486 19.9874C9.61111 19.9874 9.30029 19.6766 9.30029 19.2929V17.5061C9.30029 17.1223 9.61111 16.8115 9.99486 16.8115C10.3786 16.8115 10.6894 17.1223 10.6894 17.5061V19.2929C10.6894 19.6766 10.3786 19.9874 9.99486 19.9874Z" fill="#A8ABAE"/>
<path d="M19.2931 10.6889H17.508C17.1243 10.6889 16.8135 10.3781 16.8135 9.99437C16.8135 9.61062 17.1243 9.2998 17.508 9.2998H19.2931C19.6768 9.2998 19.9876 9.61062 19.9876 9.99437C19.9876 10.3781 19.6768 10.6889 19.2931 10.6889Z" fill="#A8ABAE"/>
<path d="M14.2752 10.6889H10.0071C9.62332 10.6889 9.3125 10.3781 9.3125 9.99437C9.3125 9.61062 9.62332 9.2998 10.0071 9.2998H14.2752C14.6589 9.2998 14.9697 9.61062 14.9697 9.99437C14.9697 10.3781 14.6589 10.6889 14.2752 10.6889Z" fill="#FF9800"/>
<path d="M10.007 19.9878C4.49562 19.9878 0.012207 15.5044 0.012207 9.99479C0.012207 4.48515 4.49562 0 10.007 0C15.5184 0 20.0001 4.48342 20.0001 9.99479C20.0001 15.5062 15.5166 19.9896 10.007 19.9896V19.9878ZM10.007 1.38913C5.26138 1.38913 1.40134 5.24918 1.40134 9.99479C1.40134 14.7404 5.26138 18.6005 10.0053 18.6005C14.7491 18.6005 18.6092 14.7404 18.6092 9.99479C18.6092 5.24918 14.7509 1.38913 10.007 1.38913Z" fill="#A8ABAE"/>
</g>
<defs>
<clipPath id="clip0_1270_3351">
<rect width="20" height="19.9878" fill="white"/>
</clipPath>
</defs>
</svg>
