<svg width="20" height="20" viewBox="0 0 20 20" fill="none" xmlns="http://www.w3.org/2000/svg">
<g clip-path="url(#clip0_1270_3325)">
<path d="M15.5158 18.08H2.60298C2.26983 18.08 2 17.8102 2 17.477V2.60298C2 2.26983 2.26983 2 2.60298 2H15.5158C15.849 2 16.1188 2.26983 16.1188 2.60298V7.17509H14.9128V3.20596H3.20596V16.874H14.9128V12.8356H16.1188V17.477C16.1188 17.8102 15.849 18.08 15.5158 18.08Z" fill="#A8ABAE"/>
<path d="M11.0175 5.82324H5.25757V6.87846H11.0175V5.82324Z" fill="#A8ABAE"/>
<path d="M9.90052 8.25879H5.25757V9.31401H9.90052V8.25879Z" fill="#A8ABAE"/>
<path d="M9.80405 10.6953H5.25757V11.7505H9.80405V10.6953Z" fill="#A8ABAE"/>
<path d="M11.0175 13.1299H5.25757V14.1851H11.0175V13.1299Z" fill="#A8ABAE"/>
<path d="M18.2531 14.9004C18.0737 14.9004 17.8974 14.8221 17.7783 14.6698L16.1713 12.6257C15.9648 12.3634 16.0115 11.985 16.2723 11.7785C16.5346 11.572 16.913 11.6187 17.1195 11.8795L18.7265 13.9236C18.933 14.1859 18.8863 14.5643 18.6255 14.7708C18.5154 14.8582 18.3843 14.9004 18.2531 14.9004Z" fill="#FF9800"/>
<path d="M14.9595 13.416C13.0782 13.416 11.5481 11.8845 11.5481 10.0032C11.5481 8.12186 13.0782 6.5918 14.9595 6.5918C16.8408 6.5918 18.3708 8.12186 18.3708 10.0032C18.3708 11.8845 16.8408 13.416 14.9595 13.416ZM14.9595 7.79776C13.7429 7.79776 12.7541 8.78665 12.7541 10.0032C12.7541 11.2197 13.7445 12.2101 14.9595 12.2101C16.1745 12.2101 17.1649 11.2197 17.1649 10.0032C17.1649 8.78665 16.176 7.79776 14.9595 7.79776Z" fill="#FF9800"/>
</g>
<defs>
<clipPath id="clip0_1270_3325">
<rect width="16.8548" height="16.08" fill="white" transform="translate(2 2)"/>
</clipPath>
</defs>
</svg>
