<svg width="20" height="20" viewBox="0 0 20 20" fill="none" xmlns="http://www.w3.org/2000/svg">
<g clip-path="url(#clip0_1270_3562)">
<path d="M16.421 20H3.76682C3.06788 20 2.5 19.4513 2.5 18.7769V0.698934C2.5 0.312773 2.81277 0 3.19893 0H16.9889C17.3751 0 17.6878 0.312773 17.6878 0.698934V18.7751C17.6878 19.4496 17.12 19.9983 16.421 19.9983V20ZM3.89787 18.6021H16.29V1.39787H3.89787V18.6021Z" fill="#A8ABAE"/>
<path d="M11.5494 20H8.64009C8.15083 20 7.75244 19.6016 7.75244 19.1124V15.415C7.75244 14.9257 8.15083 14.5273 8.64009 14.5273H11.5494C12.0387 14.5273 12.437 14.9257 12.437 15.415V19.1124C12.437 19.6016 12.0387 20 11.5494 20ZM9.15031 18.6021H11.0409V15.9235H9.15031V18.6021Z" fill="#A8ABAE"/>
<path d="M7.61455 3.68359H6.15727C6.05787 3.68359 5.97729 3.76417 5.97729 3.86357V5.32085C5.97729 5.42025 6.05787 5.50082 6.15727 5.50082H7.61455C7.71395 5.50082 7.79452 5.42025 7.79452 5.32085V3.86357C7.79452 3.76417 7.71395 3.68359 7.61455 3.68359Z" fill="#FF9800"/>
<path d="M10.8226 3.68359H9.36528C9.26588 3.68359 9.1853 3.76417 9.1853 3.86357V5.32085C9.1853 5.42025 9.26588 5.50082 9.36528 5.50082H10.8226C10.922 5.50082 11.0025 5.42025 11.0025 5.32085V3.86357C11.0025 3.76417 10.922 3.68359 10.8226 3.68359Z" fill="#FF9800"/>
<path d="M14.0306 3.68359H12.5733C12.4739 3.68359 12.3933 3.76417 12.3933 3.86357V5.32085C12.3933 5.42025 12.4739 5.50082 12.5733 5.50082H14.0306C14.13 5.50082 14.2105 5.42025 14.2105 5.32085V3.86357C14.2105 3.76417 14.13 3.68359 14.0306 3.68359Z" fill="#FF9800"/>
<path d="M7.61455 7.24121H6.15727C6.05787 7.24121 5.97729 7.32179 5.97729 7.42119V8.87846C5.97729 8.97786 6.05787 9.05844 6.15727 9.05844H7.61455C7.71395 9.05844 7.79452 8.97786 7.79452 8.87846V7.42119C7.79452 7.32179 7.71395 7.24121 7.61455 7.24121Z" fill="#FF9800"/>
<path d="M10.8226 7.24121H9.36528C9.26588 7.24121 9.1853 7.32179 9.1853 7.42119V8.87846C9.1853 8.97786 9.26588 9.05844 9.36528 9.05844H10.8226C10.922 9.05844 11.0025 8.97786 11.0025 8.87846V7.42119C11.0025 7.32179 10.922 7.24121 10.8226 7.24121Z" fill="#FF9800"/>
<path d="M14.0306 7.24121H12.5733C12.4739 7.24121 12.3933 7.32179 12.3933 7.42119V8.87846C12.3933 8.97786 12.4739 9.05844 12.5733 9.05844H14.0306C14.13 9.05844 14.2105 8.97786 14.2105 8.87846V7.42119C14.2105 7.32179 14.13 7.24121 14.0306 7.24121Z" fill="#FF9800"/>
<path d="M7.61455 10.7998H6.15727C6.05787 10.7998 5.97729 10.8804 5.97729 10.9798V12.4371C5.97729 12.5365 6.05787 12.617 6.15727 12.617H7.61455C7.71395 12.617 7.79452 12.5365 7.79452 12.4371V10.9798C7.79452 10.8804 7.71395 10.7998 7.61455 10.7998Z" fill="#FF9800"/>
<path d="M10.8226 10.7998H9.36528C9.26588 10.7998 9.1853 10.8804 9.1853 10.9798V12.4371C9.1853 12.5365 9.26588 12.617 9.36528 12.617H10.8226C10.922 12.617 11.0025 12.5365 11.0025 12.4371V10.9798C11.0025 10.8804 10.922 10.7998 10.8226 10.7998Z" fill="#FF9800"/>
<path d="M14.0306 10.7998H12.5733C12.4739 10.7998 12.3933 10.8804 12.3933 10.9798V12.4371C12.3933 12.5365 12.4739 12.617 12.5733 12.617H14.0306C14.13 12.617 14.2105 12.5365 14.2105 12.4371V10.9798C14.2105 10.8804 14.13 10.7998 14.0306 10.7998Z" fill="#FF9800"/>
</g>
<defs>
<clipPath id="clip0_1270_3562">
<rect width="15.1878" height="20" fill="white" transform="translate(2.5)"/>
</clipPath>
</defs>
</svg>
