<svg width="20" height="20" viewBox="0 0 20 20" fill="none" xmlns="http://www.w3.org/2000/svg">
<g clip-path="url(#clip0_1270_3580)">
<path d="M18.0756 19.3741H2.12525C0.874566 19.3741 0 18.3973 0 17.0005C0 15.6038 0.874566 14.627 2.12525 14.627H18.0756C18.4791 14.627 18.8059 14.9538 18.8059 15.3573C18.8059 15.7608 18.4791 16.0876 18.0756 16.0876C18.0117 16.0876 17.9733 16.0949 17.9533 16.0986C17.8802 16.2465 17.8802 16.7522 17.8802 17.0005C17.8802 17.2488 17.8802 17.7546 17.9533 17.9025C17.9733 17.9079 18.0117 17.9134 18.0756 17.9134C18.4791 17.9134 18.8059 18.2402 18.8059 18.6438C18.8059 19.0473 18.4791 19.3741 18.0756 19.3741ZM2.12525 16.0876C1.52638 16.0876 1.46065 16.7266 1.46065 17.0005C1.46065 17.2744 1.52456 17.9134 2.12525 17.9134H16.4689C16.4196 17.5848 16.4196 17.258 16.4196 17.0005C16.4196 16.7431 16.4196 16.4163 16.4689 16.0876H2.12525Z" fill="#A8ABAE"/>
<path d="M18.0959 1.57471C18.074 1.2132 17.791 0.922894 17.4295 0.891855C14.3858 0.625286 12.1163 1.26615 10.7086 2.77792C10.3964 3.11387 10.1518 3.46808 9.95823 3.82047C9.75557 3.46808 9.49995 3.11387 9.17678 2.77792C7.72526 1.26615 5.4302 0.625286 2.38657 0.891855C2.01775 0.92472 1.7311 1.22781 1.72014 1.59845C1.71832 1.68791 1.6745 3.81134 3.30495 5.49109C4.56477 6.78742 6.4344 7.44654 8.86457 7.44654C8.99603 7.44654 9.13114 7.44106 9.26625 7.43741V11.7372C9.26625 12.1407 9.59307 12.4675 9.99657 12.4675C10.4001 12.4675 10.7269 12.1407 10.7269 11.7372V7.43741C10.862 7.44106 10.9971 7.44654 11.1286 7.44654C13.5533 7.44654 15.401 6.78924 16.6206 5.49109C18.2091 3.80221 18.0977 1.666 18.0922 1.57654L18.0959 1.57471ZM8.86822 5.98588C6.85799 5.98588 5.34439 5.48196 4.3694 4.48871C3.65003 3.75474 3.3652 2.88565 3.25383 2.30139C5.46489 2.2247 7.08987 2.72315 8.11233 3.77482C8.82805 4.51245 9.10192 5.39067 9.20782 5.97858C9.09279 5.98223 8.97959 5.98406 8.87004 5.98406L8.86822 5.98588ZM15.5617 4.49054C14.5721 5.54221 12.969 6.04614 10.7689 5.98041C10.8511 5.39615 11.0921 4.51245 11.7786 3.77482C12.7609 2.7195 14.3712 2.22288 16.5914 2.30321C16.502 2.882 16.2518 3.75656 15.5617 4.49054Z" fill="#FF9800"/>
<path d="M17.8746 15.9415H1.92613C1.52262 15.9415 1.1958 15.6146 1.1958 15.2111C1.1958 14.8076 1.52262 14.4808 1.92613 14.4808C1.99003 14.4808 2.02837 14.4735 2.04846 14.4699C2.12149 14.322 2.12149 13.8162 2.12149 13.5679C2.12149 13.3196 2.12149 12.8138 2.04846 12.6659C2.02837 12.6605 1.99186 12.655 1.92613 12.655C1.52262 12.655 1.1958 12.3282 1.1958 11.9247C1.1958 11.5212 1.52262 11.1943 1.92613 11.1943H17.8746C19.1253 11.1943 19.9999 12.1711 19.9999 13.5679C19.9999 14.9646 19.1253 15.9415 17.8746 15.9415ZM3.53102 14.4808H17.8746C18.4735 14.4808 18.5392 13.8418 18.5392 13.5679C18.5392 13.294 18.4753 12.655 17.8746 12.655H3.53102C3.58032 12.9836 3.58032 13.3105 3.58032 13.5679C3.58032 13.8253 3.58032 14.1522 3.53102 14.4808Z" fill="#A8ABAE"/>
</g>
<defs>
<clipPath id="clip0_1270_3580">
<rect width="20" height="18.5412" fill="white" transform="translate(0 0.833008)"/>
</clipPath>
</defs>
</svg>
