<svg width="44" height="44" viewBox="0 0 44 44" fill="none" xmlns="http://www.w3.org/2000/svg">
<path d="M31.129 16.0402C31.154 14.8621 30.9437 13.691 30.5101 12.5953C30.0766 11.4996 29.4288 10.5016 28.6045 9.65957C27.7802 8.81758 26.7961 8.14863 25.7099 7.69194C24.6237 7.23524 23.4573 7 22.279 7C21.1007 7 19.9343 7.23524 18.8481 7.69194C17.7619 8.14863 16.7778 8.81758 15.9535 9.65957C15.1292 10.5016 14.4814 11.4996 14.0479 12.5953C13.6143 13.691 13.404 14.8621 13.429 16.0402C13.426 26.3662 9 29.3172 9 29.3172H35.555C35.555 29.3172 31.129 26.3662 31.129 16.0402Z" fill="#333333" fill-opacity="0.96"/>
<path d="M31.129 16.0402C31.154 14.8621 30.9437 13.691 30.5101 12.5953C30.0766 11.4996 29.4288 10.5016 28.6045 9.65957C27.7802 8.81758 26.7961 8.14863 25.7099 7.69194C24.6237 7.23524 23.4573 7 22.279 7C21.1007 7 19.9343 7.23524 18.8481 7.69194C17.7619 8.14863 16.7778 8.81758 15.9535 9.65957C15.1292 10.5016 14.4814 11.4996 14.0479 12.5953C13.6143 13.691 13.404 14.8621 13.429 16.0402C13.426 26.3662 9 29.3172 9 29.3172H35.555C35.555 29.3172 31.129 26.3662 31.129 16.0402" stroke="#333333" stroke-width="2" stroke-linecap="round" stroke-linejoin="round"/>
<path d="M24.829 35.2178C24.5693 35.6637 24.1971 36.0338 23.7496 36.291C23.3022 36.5482 22.7951 36.6835 22.279 36.6835C21.7629 36.6835 21.2558 36.5482 20.8084 36.291C20.3609 36.0338 19.9888 35.6637 19.729 35.2178" fill="#333333" fill-opacity="0.96"/>
<path d="M24.829 35.2178C24.5693 35.6637 24.1971 36.0338 23.7496 36.291C23.3022 36.5482 22.7951 36.6835 22.279 36.6835C21.7629 36.6835 21.2558 36.5482 20.8084 36.291C20.3609 36.0338 19.9888 35.6637 19.729 35.2178" stroke="#333333" stroke-width="2" stroke-linecap="round" stroke-linejoin="round"/>
</svg>
