<svg width="26" height="27" viewBox="0 0 26 27" fill="none" xmlns="http://www.w3.org/2000/svg">
<path d="M15.2004 11.8093C15.2004 10.2685 14.6019 8.79094 13.5367 7.70149C12.4715 6.61204 11.0267 6 9.52023 6C8.01376 6 6.56899 6.61204 5.50376 7.70149C4.43852 8.79094 3.84008 10.2685 3.84008 11.8093C3.84008 18.5867 1 20.5231 1 20.5231H18.0405C18.0405 20.5231 15.2004 18.5867 15.2004 11.8093Z" stroke="#333333" stroke-width="1.5" stroke-linecap="round" stroke-linejoin="round"/>
<path d="M11.1579 24.3955C10.9914 24.689 10.7525 24.9325 10.4651 25.1018C10.1777 25.2712 9.8518 25.3603 9.5201 25.3603C9.1884 25.3603 8.86252 25.2712 8.57509 25.1018C8.28766 24.9325 8.04876 24.689 7.88232 24.3955" stroke="#333333" stroke-width="1.5" stroke-linecap="round" stroke-linejoin="round"/>
</svg>
