<svg width="22" height="22" viewBox="0 0 22 22" fill="none" xmlns="http://www.w3.org/2000/svg">
<circle cx="11" cy="11" r="11" fill="#DBEAFE"/>
<path d="M10.492 12.906H11.626C11.36 10.708 13.894 9.896 13.894 7.838C13.894 6.298 12.858 5.332 11.262 5.332C10.128 5.332 9.246 5.892 8.588 6.62L9.316 7.292C9.806 6.732 10.436 6.396 11.136 6.396C12.13 6.396 12.648 7.082 12.648 7.922C12.648 9.574 10.156 10.47 10.492 12.906ZM11.094 16.196C11.598 16.196 12.018 15.79 12.018 15.216C12.018 14.628 11.598 14.236 11.094 14.236C10.576 14.236 10.17 14.628 10.17 15.216C10.17 15.79 10.576 16.196 11.094 16.196Z" fill="#3686FF"/>
</svg>
