<svg width="10" height="3" viewBox="0 0 10 3" fill="none" xmlns="http://www.w3.org/2000/svg">
<path d="M1.63168 2.056C1.39835 2.056 1.21168 1.986 1.07168 1.846C0.93168 1.69667 0.86168 1.51 0.86168 1.286C0.86168 1.062 0.93168 0.88 1.07168 0.74C1.21168 0.590667 1.39835 0.516 1.63168 0.516C1.86501 0.516 2.04701 0.590667 2.17768 0.74C2.31768 0.88 2.38768 1.062 2.38768 1.286C2.38768 1.51 2.31768 1.69667 2.17768 1.846C2.04701 1.986 1.86501 2.056 1.63168 2.056ZM5.01723 2.056C4.78389 2.056 4.59723 1.986 4.45723 1.846C4.31723 1.69667 4.24723 1.51 4.24723 1.286C4.24723 1.062 4.31723 0.88 4.45723 0.74C4.59723 0.590667 4.78389 0.516 5.01723 0.516C5.25056 0.516 5.43256 0.590667 5.56323 0.74C5.70323 0.88 5.77323 1.062 5.77323 1.286C5.77323 1.51 5.70323 1.69667 5.56323 1.846C5.43256 1.986 5.25056 2.056 5.01723 2.056ZM8.40277 2.056C8.16944 2.056 7.98277 1.986 7.84277 1.846C7.70277 1.69667 7.63277 1.51 7.63277 1.286C7.63277 1.062 7.70277 0.88 7.84277 0.74C7.98277 0.590667 8.16944 0.516 8.40277 0.516C8.63611 0.516 8.81811 0.590667 8.94877 0.74C9.08877 0.88 9.15877 1.062 9.15877 1.286C9.15877 1.51 9.08877 1.69667 8.94877 1.846C8.81811 1.986 8.63611 2.056 8.40277 2.056Z" fill="#808691"/>
</svg>
